<svg width="33" height="34" viewBox="0 0 33 34" fill="none" xmlns="http://www.w3.org/2000/svg">
<path d="M25.6225 33.1163H7.37754C3.57877 33.1163 0.5 30.0017 0.5 26.1588V7.70171C0.5 3.85877 3.57877 0.744202 7.37754 0.744202H25.6231C29.4212 0.744202 32.5 3.85877 32.5 7.70171V26.1594C32.5 30.0017 29.4212 33.1163 25.6225 33.1163Z" fill="#6D4C13"/>
<path d="M19.38 25.0232H17.3861L15.6877 19.3955H10.5677L8.94307 25.0232H7.02307L12.0938 7.59212H14.1369L19.38 25.0232ZM15.2446 17.5528L13.1031 10.4807L11.0354 17.5528H15.2446Z" fill="#FFBD2E"/>
<path d="M23.564 8.36407C23.564 8.64608 23.4655 8.887 23.2686 9.08622C23.0717 9.28481 22.8378 9.38441 22.5671 9.38441C22.2963 9.38441 22.0581 9.28107 21.8532 9.07314C21.6477 8.86584 21.5455 8.62927 21.5455 8.36345C21.5455 8.09762 21.6477 7.86106 21.8532 7.65313C22.0581 7.44582 22.2963 7.34186 22.5671 7.34186C22.8378 7.34186 23.0717 7.44146 23.2686 7.64068C23.4661 7.84114 23.564 8.08206 23.564 8.36407ZM23.4169 25.0232H21.6446V12.5475H23.4169V25.0232Z" fill="#FFBD2E"/>
</svg>
