<svg width="33" height="32" viewBox="0 0 33 32" fill="none" xmlns="http://www.w3.org/2000/svg">
<g clip-path="url(#clip0_21_318)">
<path d="M27.7 0H5.3C2.64903 0 0.5 2.14903 0.5 4.8V27.2C0.5 29.851 2.64903 32 5.3 32H27.7C30.351 32 32.5 29.851 32.5 27.2V4.8C32.5 2.14903 30.351 0 27.7 0Z" fill="#FFD900"/>
<path d="M20.75 23.125C21.375 24.1875 22.25 24.9375 23.6875 24.9375C24.9375 24.9375 25.75 24.3125 25.75 23.4375C25.75 22.4375 24.9375 22.0625 23.5625 21.4375L22.8125 21.125C20.625 20.1875 19.1875 19.0625 19.1875 16.625C19.1875 14.375 20.875 12.625 23.5625 12.625C25.5 12.625 26.875 13.3125 27.8125 15.0625L25.5 16.5625C25 15.625 24.4375 15.25 23.5625 15.25C22.6875 15.25 22.125 15.8125 22.125 16.5625C22.125 17.4375 22.6875 17.8125 24 18.375L24.75 18.6875C27.3125 19.8125 28.75 20.875 28.75 23.4375C28.75 26.125 26.625 27.625 23.75 27.625C20.9375 27.625 19.125 26.3125 18.25 24.5625L20.75 23.125ZM10.125 23.375C10.625 24.1875 11 24.9375 12.0625 24.9375C13.0625 24.9375 13.6875 24.5625 13.6875 23.0625V12.6875H16.6875V22.9375C16.6875 26.0625 14.875 27.4375 12.1875 27.4375C9.75 27.4375 8.375 26.1875 7.6875 24.6875L10.125 23.375Z" fill="black"/>
</g>
<defs>
<clipPath id="clip0_21_318">
<rect width="32" height="32" fill="white" transform="translate(0.5)"/>
</clipPath>
</defs>
</svg>
