<svg width="33" height="32" viewBox="0 0 33 32" fill="none" xmlns="http://www.w3.org/2000/svg">
<path d="M20.5556 25.9432C20.8056 26.3002 20.9584 26.2727 21.1527 26.1903C21.3471 26.1079 31.3472 22.7717 31.6527 22.662C31.9582 22.5521 31.8611 22.456 31.764 22.3049C31.6667 22.1539 28.3334 17.6782 28.1666 17.4173C28 17.1565 27.9166 17.2113 27.6527 17.2938L17.0521 20.0204C17.0521 20.0204 20.3056 25.5861 20.5556 25.9432ZM32.5 21.3856V16.1467C31.3074 16.4608 29.7989 16.858 29.2034 17.0145C30.1017 18.2027 31.5062 20.0622 32.5 21.3856ZM29.1931 10.5622C29.0297 10.5989 25.4122 11.2451 25.1894 11.2744C24.9666 11.3038 25.0409 11.4286 25.13 11.5534L28.3134 15.8711C28.3134 15.8711 32.2057 14.9165 32.4435 14.8651C32.4627 14.8609 32.4816 14.8565 32.5 14.8519V14.2802C31.7925 13.3934 29.865 10.9788 29.6984 10.7532C29.4979 10.4815 29.3566 10.5256 29.1931 10.5622Z" fill="#F35045"/>
<path d="M6.43204 3.78014C7.21541 3.74493 7.28691 3.92113 7.63104 4.42564L16.2773 18.7147L27.149 16.1403C26.5467 15.2962 23.8122 11.4639 23.5478 11.0982C23.2508 10.687 23.5553 10.4961 24.0382 10.4154C24.5209 10.3346 28.6807 9.64433 29.0372 9.59293C29.3938 9.54153 29.6762 9.41673 30.2554 10.107C30.5519 10.4601 31.5569 11.6972 32.5 12.8569V6.17307C32.5 4.53932 31.9132 3.14231 30.7397 1.98218C29.566 0.822164 28.1528 0.242035 26.5 0.242035H6.50004C4.84729 0.242035 3.43404 0.822164 2.26041 1.98218C1.58729 2.64781 1.10816 3.39129 0.821289 4.21262C2.78104 4.05347 5.88379 3.80486 6.43204 3.78014Z" fill="#F35045"/>
<path d="M21.5361 27.8663C20.6194 28.1409 20.2083 28.2772 19.6111 27.4534C19.1639 26.8364 16.7453 22.5302 15.5594 20.4074C13.315 20.9884 9.20763 22.0481 8.02313 22.3295C6.86713 22.604 6.37337 21.9189 6.1835 21.4966C6.05037 21.2003 2.66112 13.9771 0.5 9.34247V25.9432C0.5 27.5771 1.08688 28.9738 2.26038 30.1341C3.434 31.2941 4.84725 31.8742 6.5 31.8742H26.5C28.1528 31.8742 29.566 31.2941 30.7396 30.1341C31.9131 28.9738 32.5 27.5771 32.5 25.9432V23.9932C30.045 24.8809 22.1537 27.6814 21.5361 27.8663Z" fill="#F35045"/>
<path d="M8.05149 20.6656C8.37649 20.592 14.4656 19.1515 14.5956 19.124C14.7256 19.0964 14.8091 19.023 14.6699 18.7845C14.5306 18.5461 6.55312 4.93435 6.55312 4.93435C6.47949 4.80943 6.50049 4.76779 6.30037 4.77817C6.12199 4.78756 1.60812 5.18568 0.563118 5.27192C0.532271 5.49035 0.513036 5.71022 0.505493 5.93064C1.56637 8.07755 7.65537 20.491 7.68949 20.592C7.72662 20.7023 7.72662 20.7389 8.05149 20.6656Z" fill="#F35045"/>
</svg>
