<svg width="33" height="33" viewBox="0 0 33 33" fill="none" xmlns="http://www.w3.org/2000/svg">
<g clip-path="url(#clip0_21_340)">
<path d="M16.5 25.1546C25.3366 25.1546 32.5 21.4257 32.5 16.8258C32.5 12.226 25.3366 8.49707 16.5 8.49707C7.66344 8.49707 0.5 12.226 0.5 16.8258C0.5 21.4257 7.66344 25.1546 16.5 25.1546Z" fill="#8993BE"/>
<path fill-rule="evenodd" clip-rule="evenodd" d="M4.99316 21.7573L6.74666 12.8806H10.8013C12.5547 12.9902 13.4314 13.8668 13.4314 15.4012C13.4314 18.0313 11.3493 19.5656 9.48616 19.4559H7.51379L7.07541 21.7573H4.99316ZM7.95204 17.8122L8.50004 14.5244H9.92466C10.6918 14.5244 11.2397 14.8532 11.2397 15.5107C11.1302 17.3738 10.2534 17.7026 9.26716 17.8122H7.95204ZM13.024 19.4559L14.7774 10.5793H16.8597L16.4213 12.8806H18.3938C20.1473 12.9902 20.8048 13.8668 20.5857 14.9628L19.8185 19.4559H17.6268L18.3939 15.4012C18.5034 14.8532 18.5034 14.5244 17.7364 14.5244H16.0925L15.1063 19.4559H13.024ZM19.6782 21.7573L21.4315 12.8806H25.4863C27.2398 12.9902 28.1165 13.8668 28.1165 15.4012C28.1165 18.0313 26.0343 19.5656 24.1713 19.4559H22.1987L21.7603 21.7573H19.6782ZM22.6369 17.8122L23.1849 14.5244H24.6097C25.3768 14.5244 25.9247 14.8532 25.9247 15.5107C25.8152 17.3738 24.9384 17.7026 23.9522 17.8122H22.637H22.6369Z" fill="#232531"/>
</g>
<defs>
<clipPath id="clip0_21_340">
<rect width="32" height="32" fill="white" transform="translate(0.5 0.87207)"/>
</clipPath>
</defs>
</svg>
