<svg width="33" height="33" viewBox="0 0 33 33" fill="none" xmlns="http://www.w3.org/2000/svg">
<path d="M25.6225 32.5603H7.37754C3.57877 32.5603 0.5 29.5169 0.5 25.7618V7.72659C0.5 3.97148 3.57877 0.928101 7.37754 0.928101H25.6231C29.4212 0.928101 32.5 3.97148 32.5 7.72659V25.7624C32.5 29.5169 29.4212 32.5603 25.6225 32.5603Z" fill="#393687"/>
<path d="M7.98312 24.6523H6.21082V7.61954H12.1431C13.7511 7.61954 14.945 8.11409 15.7247 9.10382C16.5037 10.0929 16.8939 11.3911 16.8939 12.9964C16.8939 13.5646 16.8773 14.0549 16.8447 14.4685C16.8114 14.8828 16.7093 15.4017 16.537 16.0264C16.3647 16.6505 16.1308 17.1615 15.8354 17.5593C15.54 17.9572 15.089 18.3057 14.4816 18.6056C13.8742 18.9061 13.1524 19.0558 12.3154 19.0558H7.98312V24.6523ZM7.98312 17.3525H12.0939C12.6847 17.3525 13.185 17.2388 13.5954 17.0119C14.0053 16.7844 14.305 16.5416 14.4939 16.2819C14.6822 16.0221 14.8299 15.6492 14.937 15.1626C15.0434 14.6753 15.1013 14.311 15.1093 14.067C15.1173 13.8243 15.1216 13.4751 15.1216 13.0207C15.1216 10.5552 14.0791 9.3222 11.9954 9.3222H7.98312V17.3525Z" fill="#89D3FF"/>
<path d="M18.6416 21.562L20.3647 21.489C20.4299 22.0894 20.7339 22.556 21.2754 22.8881C21.817 23.2209 22.4404 23.387 23.1462 23.387C23.852 23.387 24.4631 23.2288 24.98 22.9125C25.497 22.5962 25.7554 22.1424 25.7554 21.5505C25.7554 20.9586 25.5339 20.4878 25.0908 20.1392C24.6477 19.7906 24.1062 19.5151 23.4662 19.3119C22.8262 19.1093 22.1825 18.8946 21.5339 18.6671C20.8853 18.4402 20.3154 18.0831 19.8231 17.5964C19.2157 17.0283 18.9124 16.3354 18.9124 15.516C18.9124 14.6966 19.2447 13.9338 19.9093 13.2282C20.5739 12.5225 21.6527 12.1703 23.1462 12.1703C23.6717 12.1703 24.1634 12.2311 24.6231 12.3528C25.0822 12.4745 25.4108 12.5925 25.6077 12.7056L25.9031 12.8753L25.337 14.4089C24.8114 14.0038 24.1222 13.8006 23.2693 13.8006C22.4157 13.8006 21.78 13.9587 21.3616 14.2751C20.9431 14.5914 20.7339 14.9929 20.7339 15.4789C20.7339 16.0142 20.996 16.4364 21.5216 16.7442C22.0465 17.0526 22.6373 17.3124 23.2939 17.5228C23.9499 17.7339 24.6022 17.9687 25.2508 18.2285C25.8988 18.4882 26.4484 18.894 26.9 19.4451C27.3517 19.9962 27.577 20.7262 27.577 21.635C27.577 22.5438 27.2077 23.3346 26.4693 24.0074C25.7308 24.6802 24.6514 25.0172 23.2324 25.0172C21.8127 25.0172 20.7007 24.6845 19.897 24.0196C19.0927 23.3547 18.6742 22.5353 18.6416 21.562Z" fill="#89D3FF"/>
</svg>
