<svg width="33" height="32" viewBox="0 0 33 32" fill="none" xmlns="http://www.w3.org/2000/svg">
<path fill-rule="evenodd" clip-rule="evenodd" d="M16.5 0C19.6645 0 22.7579 0.938384 25.3891 2.69649C28.0203 4.45459 30.0711 6.95345 31.2821 9.87706C32.4931 12.8007 32.8099 16.0177 32.1926 19.1214C31.5752 22.2251 30.0513 25.0761 27.8137 27.3137C25.5761 29.5513 22.7251 31.0752 19.6214 31.6926C16.5177 32.3099 13.3007 31.9931 10.3771 30.7821C7.45345 29.5711 4.95459 27.5203 3.19649 24.8891C1.43838 22.2579 0.5 19.1645 0.5 16C0.5 11.7565 2.18571 7.68687 5.18629 4.68629C8.18687 1.68571 12.2565 0 16.5 0Z" fill="#CC6699"/>
<path d="M26.377 6.9373C25.6643 4.11535 21.0294 3.19135 16.6429 4.76011C13.8958 5.69222 11.3577 7.16228 9.17394 9.08611C6.75812 11.3677 6.37253 13.3542 6.53103 14.184C7.09311 17.1127 11.0648 19.0265 12.6982 20.4465V20.4545C12.217 20.694 8.69168 22.4977 7.86429 24.3367C6.99419 26.28 8.00256 27.674 8.67144 27.8613C9.67568 28.1054 10.7304 28.0259 11.6877 27.634C12.6449 27.2422 13.4566 26.5575 14.009 25.6761C14.4654 24.962 14.751 24.1504 14.8431 23.3056C14.9352 22.4608 14.8313 21.6059 14.5396 20.8087C15.3263 20.6068 16.1442 20.5594 16.9487 20.669C19.7096 20.9948 20.2514 22.735 20.148 23.4637C20.0994 23.7232 19.996 23.9689 19.8449 24.1844C19.6938 24.3999 19.4985 24.5799 19.2723 24.7124C19.0789 24.8338 19.0194 24.8747 19.0362 24.9655C19.0598 25.0961 19.1486 25.0915 19.3139 25.0631C19.7288 24.9312 20.0944 24.6754 20.3625 24.3295C20.6306 23.9836 20.7886 23.5639 20.8158 23.1255C20.8821 21.4228 19.2622 19.5089 16.3933 19.5577C15.5601 19.5337 14.7286 19.6488 13.9325 19.8983C13.8932 19.8529 13.8527 19.8075 13.8111 19.7621C12.0372 17.8516 8.75912 16.4997 8.8974 13.9309C8.94798 12.9967 9.26949 10.5379 15.1927 7.55481C20.0491 5.11086 23.9364 5.784 24.6087 7.27443C25.5687 9.40395 22.5312 13.3599 17.4882 13.9309C16.9309 14.0451 16.3551 14.0312 15.8038 13.8901C15.2525 13.749 14.7397 13.4844 14.3035 13.1158C14.0382 12.8207 13.9988 12.8082 13.8999 12.8627C13.7392 12.9524 13.8415 13.2135 13.8999 13.3678C14.093 13.7193 14.3537 14.0282 14.6666 14.2765C14.9795 14.5249 15.3384 14.7076 15.7222 14.814C17.705 15.249 19.7731 15.0425 21.633 14.2237C24.6919 13.033 27.0774 9.7127 26.377 6.9373ZM13.3772 21.3206C13.6005 22.0978 13.5891 22.9246 13.3446 23.6953C13.3184 23.7755 13.2895 23.855 13.258 23.9337C13.2265 24.0124 13.1924 24.0881 13.1557 24.1607C12.9665 24.5516 12.7215 24.9122 12.4284 25.2311C11.5144 26.238 10.2363 26.6194 9.68881 26.2982C9.0975 25.952 9.39315 24.5319 10.4532 23.4002C11.2678 22.5868 12.2069 21.9115 13.2344 21.4001L13.3772 21.3206Z" fill="white"/>
</svg>
