<svg width="33" height="34" viewBox="0 0 33 34" fill="none" xmlns="http://www.w3.org/2000/svg">
<g clip-path="url(#clip0_21_346)">
<path d="M25.75 22.4003V8.68604H23.5V24.686H32.5V22.4003H25.75Z" fill="#F16529"/>
<path d="M19 8.68604H14C13.337 8.68604 12.7011 8.93187 12.2322 9.36945C11.7634 9.80704 11.5 10.4005 11.5 11.0194V22.686C11.5 23.3049 11.7634 23.8984 12.2322 24.336C12.7011 24.7735 13.337 25.0194 14 25.0194H15.25V27.3527C15.25 27.9715 15.5134 28.565 15.9822 29.0026C16.4511 29.4402 17.087 29.686 17.75 29.686H20.25V27.3527H17.75V25.0194H19C19.663 25.0194 20.2989 24.7735 20.7678 24.336C21.2366 23.8984 21.5 23.3049 21.5 22.686V11.0194C21.5 10.4005 21.2366 9.80704 20.7678 9.36945C20.2989 8.93187 19.663 8.68604 19 8.68604ZM14 22.686V11.0194H19V22.686H14Z" fill="#F16529"/>
<path d="M7.25 24.686H0.5V22.4003H7.25V17.8289H2.75C2.15326 17.8289 1.58097 17.5881 1.15901 17.1594C0.737053 16.7308 0.5 16.1494 0.5 15.5432V10.9717C0.5 10.3655 0.737053 9.78416 1.15901 9.35551C1.58097 8.92685 2.15326 8.68604 2.75 8.68604H9.5V10.9717H2.75V15.5432H7.25C7.84674 15.5432 8.41903 15.784 8.84099 16.2126C9.26295 16.6413 9.5 17.2227 9.5 17.8289V22.4003C9.5 23.0065 9.26295 23.5879 8.84099 24.0166C8.41903 24.4452 7.84674 24.686 7.25 24.686Z" fill="#F16529"/>
</g>
<defs>
<clipPath id="clip0_21_346">
<rect width="32" height="32.3721" fill="white" transform="translate(0.5 0.686035)"/>
</clipPath>
</defs>
</svg>
