<svg width="33" height="32" viewBox="0 0 33 32" fill="none" xmlns="http://www.w3.org/2000/svg">
<g clip-path="url(#clip0_21_306)">
<path d="M31.0006 0H1.99943C1.17132 0 0.5 0.671317 0.5 1.49943V30.5006C0.5 31.3287 1.17132 32 1.99943 32H31.0006C31.8287 32 32.5 31.3287 32.5 30.5006V1.49943C32.5 0.671317 31.8287 0 31.0006 0Z" fill="#3178C6"/>
<path fill-rule="evenodd" clip-rule="evenodd" d="M19.1391 24.6859V28.1371C19.7569 28.4466 20.4152 28.6644 21.094 28.7839C21.8784 28.9309 22.6747 29.0032 23.4723 28.9999C24.2497 29.0036 25.0254 28.9241 25.7863 28.7625C26.4695 28.6224 27.1214 28.3554 27.7091 27.9751C28.2547 27.6176 28.7044 27.1283 29.0179 26.551C29.5794 25.3556 29.6535 23.9836 29.2241 22.7331C29.0429 22.2655 28.7729 21.8385 28.4295 21.4766C28.0608 21.0917 27.6421 20.7598 27.1849 20.4901C26.6585 20.1772 26.1116 19.9013 25.548 19.6644C25.1048 19.4777 24.7058 19.2962 24.3511 19.12C24.0362 18.9669 23.7347 18.7866 23.4501 18.5811C23.2273 18.4225 23.0337 18.2253 22.8783 17.9984C22.744 17.7925 22.6741 17.5502 22.6777 17.3033C22.6747 17.076 22.7371 16.8528 22.8572 16.6609C22.9877 16.4602 23.1617 16.2924 23.3659 16.1705C23.6156 16.0213 23.8872 15.9138 24.1705 15.8522C24.5183 15.7737 24.8738 15.736 25.23 15.7397C25.5296 15.7407 25.8288 15.7625 26.1254 15.8049C26.4458 15.8489 26.7628 15.9154 27.0741 16.004C27.3907 16.0931 27.7004 16.2059 28.0006 16.3415C28.2919 16.4733 28.5705 16.6322 28.8329 16.8162V13.5956C28.2866 13.3859 27.7202 13.235 27.1428 13.1457C26.4456 13.0427 25.7417 12.9942 25.0371 13.0006C24.2671 12.9963 23.4992 13.0851 22.7497 13.2649C22.0723 13.422 21.4282 13.7013 20.848 14.0894C20.309 14.4539 19.864 14.9442 19.5503 15.5192C19.2178 16.1577 19.0532 16.8726 19.0726 17.5946C19.048 18.5494 19.3579 19.4821 19.947 20.2269C20.6698 21.0526 21.5812 21.6857 22.6012 22.0705C23.0667 22.2655 23.5008 22.4564 23.9034 22.6431C24.2667 22.8072 24.6159 23.0017 24.9474 23.2247C25.2147 23.4012 25.4495 23.6239 25.6411 23.8827C25.8096 24.1175 25.899 24.4011 25.896 24.6915C25.8976 24.9092 25.8425 25.1233 25.7364 25.3125C25.6186 25.5157 25.453 25.6862 25.2544 25.8086C25.0059 25.9623 24.734 26.0733 24.4498 26.137C24.0796 26.221 23.7009 26.2607 23.3216 26.2551C22.5772 26.2538 21.8387 26.1205 21.1395 25.8614C20.4089 25.5938 19.7315 25.1957 19.1391 24.6859ZM13.4272 16.094H17.8602V13.2514H5.5V16.094H9.91301V28.7535H13.4272V16.094Z" fill="white"/>
</g>
<defs>
<clipPath id="clip0_21_306">
<rect width="32" height="32" fill="white" transform="translate(0.5)"/>
</clipPath>
</defs>
</svg>
