<svg width="33" height="32" viewBox="0 0 33 32" fill="none" xmlns="http://www.w3.org/2000/svg">
<g clip-path="url(#clip0_21_300)">
<path d="M32.3941 4.24061L17.3621 31.5748C17.0517 32.139 16.2544 32.1424 15.9393 31.5808L0.609298 4.24316C0.266149 3.6311 0.780645 2.88981 1.4626 3.01369L16.5108 5.74901C16.6068 5.76646 16.7051 5.7663 16.801 5.74854L31.5345 3.01765C32.2142 2.89168 32.7313 3.62738 32.3941 4.24061Z" fill="url(#paint0_linear_21_300)"/>
<path d="M23.9086 0.00797108L12.5369 2.20803C12.446 2.22559 12.3636 2.27248 12.3026 2.34132C12.2417 2.41017 12.2057 2.49706 12.2002 2.58833L11.5007 14.2534C11.4844 14.5282 11.7399 14.7414 12.0114 14.6795L15.1775 13.9582C15.4738 13.8907 15.7414 14.1483 15.6805 14.4424L14.7399 18.9904C14.6765 19.2964 14.9676 19.5582 15.2703 19.4675L17.2258 18.8807C17.529 18.7899 17.8203 19.0524 17.7562 19.3587L16.2614 26.5026C16.1679 26.9494 16.7698 27.193 17.0209 26.8099L17.1885 26.5541L26.4548 8.29503C26.61 7.98931 26.3426 7.64076 26.0023 7.70553L22.7435 8.32655C22.4371 8.38485 22.1766 8.10326 22.263 7.80736L24.3901 0.526929C24.4766 0.230448 24.2152 -0.0513715 23.9086 0.00797108Z" fill="url(#paint1_linear_21_300)"/>
</g>
<defs>
<linearGradient id="paint0_linear_21_300" x1="0.234962" y1="2.03669" x2="19.3513" y2="27.5665" gradientUnits="userSpaceOnUse">
<stop stop-color="#41D1FF"/>
<stop offset="1" stop-color="#BD34FE"/>
</linearGradient>
<linearGradient id="paint1_linear_21_300" x1="15.6971" y1="0.605202" x2="19.0714" y2="24.0491" gradientUnits="userSpaceOnUse">
<stop stop-color="#FFEA83"/>
<stop offset="0.0833" stop-color="#FFDD35"/>
<stop offset="1" stop-color="#FFA800"/>
</linearGradient>
<clipPath id="clip0_21_300">
<rect width="32" height="32" fill="white" transform="translate(0.5)"/>
</clipPath>
</defs>
</svg>
